<?xml version="1.0" encoding="UTF-8"?>
<svg version="1.1" xmlns="http://www.w3.org/2000/svg" width="267" height="86">
<path d="M0 0 C0.66 0 1.32 0 2 0 C1.67 4.95 1.34 9.9 1 15 C2.093125 13.865625 3.18625 12.73125 4.3125 11.5625 C6.65141744 9.13532152 7.74546282 8.08484573 11 7 C9.37453546 13.19850301 7.61091716 19.34357308 5.703125 25.4609375 C5.29806821 26.76949755 4.89312144 28.07809167 4.48828125 29.38671875 C3.866201 31.39625043 3.24068006 33.40439909 2.60498047 35.40966797 C1.98117913 37.38194605 1.37219574 39.35830284 0.765625 41.3359375 C0.40243164 42.49657715 0.03923828 43.6572168 -0.33496094 44.85302734 C-1.02540774 48.12022973 -1.15575569 49.88297196 0 53 C1.66792749 54.87304627 1.66792749 54.87304627 3.859375 56.41015625 C4.64570312 57.00763672 5.43203125 57.60511719 6.2421875 58.22070312 C7.06976563 58.82849609 7.89734375 59.43628906 8.75 60.0625 C10.36982345 61.28250988 11.98961595 62.50256087 13.609375 63.72265625 C14.37056641 64.28871582 15.13175781 64.85477539 15.91601562 65.43798828 C18.3202909 67.24006809 20.67100809 69.10177692 23 71 C18.03917273 70.43116357 13.98257534 68.81376268 9.5390625 66.6484375 C8.83083344 66.31131744 8.12260437 65.97419739 7.39291382 65.62686157 C5.13348429 64.54997024 2.87905837 63.4630827 0.625 62.375 C-1.58502699 61.31443967 -3.79610236 60.25613962 -6.0083313 59.20018005 C-7.47490256 58.49989355 -8.94030272 57.79714909 -10.4045105 57.0919342 C-14.09933852 55.32474304 -17.8068668 53.6399708 -21.59423828 52.07983398 C-22.32945709 51.77401398 -23.0646759 51.46819397 -23.82217407 51.15310669 C-25.21593974 50.57940366 -26.61533703 50.01912938 -28.02084351 49.474823 C-31.03347885 48.2319584 -32.74604323 47.41294704 -34.47875977 44.59545898 C-35.125 42.3125 -35.125 42.3125 -35.49609375 40.015625 C-36.13308425 37.46766299 -36.98212382 36.90883443 -39.1875 35.5625 C-40.115625 35.046875 -41.04375 34.53125 -42 34 C-42 33.34 -42 32.68 -42 32 C-36.98092486 30.15086705 -36.98092486 30.15086705 -34 30 C-31.8436249 31.04690551 -30.25013484 32.26616179 -28.4453125 33.8359375 C-27.04969525 35.20908621 -27.04969525 35.20908621 -25 35 C-23.12246925 32.55676373 -21.36164321 30.1037411 -19.625 27.5625 C-18.54833948 26.011606 -17.47151143 24.46082829 -16.39453125 22.91015625 C-15.56042725 21.70190186 -15.56042725 21.70190186 -14.70947266 20.46923828 C-11.93524526 16.46202093 -9.12356576 12.48141668 -6.3125 8.5 C-5.79574707 7.76467041 -5.27899414 7.02934082 -4.74658203 6.27172852 C-1.11493045 1.11493045 -1.11493045 1.11493045 0 0 Z " fill="#5FCDB5" transform="translate(45,8)"/>
<path d="M0 0 C2.31 0 4.62 0 7 0 C10.33549014 7.21136695 13.18478087 14.57094952 16 22 C16.33 14.74 16.66 7.48 17 0 C30.3585823 -0.40480552 30.3585823 -0.40480552 35 3 C37 5 37 5 37.4375 8.8125 C37.33381341 12.16706618 36.99098008 13.01324801 35 15.9375 C31.13024026 18.59795982 28.64682839 18.76372059 24 19 C24 21.64 24 24.28 24 27 C21.87527424 27.05386629 19.75016348 27.09273071 17.625 27.125 C15.84996094 27.15980469 15.84996094 27.15980469 14.0390625 27.1953125 C11 27 11 27 9 25 C9 23.68 9 22.36 9 21 C5.7 21 2.4 21 -1 21 C-1.144375 21.804375 -1.28875 22.60875 -1.4375 23.4375 C-2 26 -2 26 -3 27 C-4.99958364 27.04080783 -7.00045254 27.04254356 -9 27 C-8.36352687 20.99896765 -6.12278022 15.69576616 -3.9375 10.125 C-3.37192383 8.66320312 -3.37192383 8.66320312 -2.79492188 7.171875 C-1.86835624 4.77922451 -0.93659209 2.38873946 0 0 Z M24 5 C24 7.64 24 10.28 24 13 C25.65 12.67 27.3 12.34 29 12 C29.67958603 9.60280568 29.67958603 9.60280568 30 7 C29.34 6.34 28.68 5.68 28 5 C26.68 5 25.36 5 24 5 Z M3 9 C2.34 11.31 1.68 13.62 1 16 C2.98 16 4.96 16 7 16 C6.34 13.69 5.68 11.38 5 9 C4.34 9 3.68 9 3 9 Z " fill="#3C3C3E" transform="translate(77,14)"/>
<path d="M0 0 C2.31 0 4.62 0 7 0 C10.40666561 7.21822181 13.35862626 14.46719341 16 22 C16.33 14.74 16.66 7.48 17 0 C19.31 0 21.62 0 24 0 C24 6.93 24 13.86 24 21 C26.97 21 29.94 21 33 21 C33 22.98 33 24.96 33 27 C29.39625537 27.14500644 25.79325758 27.23396763 22.1875 27.3125 C21.16333984 27.35439453 20.13917969 27.39628906 19.08398438 27.43945312 C16.30458821 27.485017 13.73756867 27.48907027 11 27 C9.09375 24.53125 9.09375 24.53125 8 22 C5.74660502 21.1893804 5.74660502 21.1893804 3.3125 21.1875 C2.50425781 21.13980469 1.69601563 21.09210937 0.86328125 21.04296875 C0.24839844 21.02878906 -0.36648437 21.01460937 -1 21 C-1.144375 21.804375 -1.28875 22.60875 -1.4375 23.4375 C-2 26 -2 26 -3 27 C-4.99958364 27.04080783 -7.00045254 27.04254356 -9 27 C-7.71011592 20.49194848 -5.8622531 14.57980187 -3.375 8.4375 C-3.05015625 7.61958984 -2.7253125 6.80167969 -2.390625 5.95898438 C-1.59978204 3.97024694 -0.80075781 1.98476601 0 0 Z M3 9 C2.34 11.31 1.68 13.62 1 16 C2.65 16 4.3 16 6 16 C5.65772428 13.02934491 5.65772428 13.02934491 5 10 C4.34 9.67 3.68 9.34 3 9 Z " fill="#3C3C3E" transform="translate(232,14)"/>
<path d="M0 0 C2.206875 -0.061875 4.41375 -0.12375 6.6875 -0.1875 C8.54955078 -0.23970703 8.54955078 -0.23970703 10.44921875 -0.29296875 C14.49607131 0.04092998 17.11242948 1.11242948 20 4 C20.1875 7.4375 20.1875 7.4375 20 11 C19.34 11.66 18.68 12.32 18 13 C18.515625 13.350625 19.03125 13.70125 19.5625 14.0625 C21 16 21 16 20.875 19.5 C19.72093023 24.11627907 19.72093023 24.11627907 17 26 C11.57364835 27.80878388 5.66885438 27.05200784 0 27 C0 18.09 0 9.18 0 0 Z M7 5 C7 6.98 7 8.96 7 11 C8.65 11 10.3 11 12 11 C12.33 9.35 12.66 7.7 13 6 C10.03 5.505 10.03 5.505 7 5 Z M7 16 C7 17.65 7 19.3 7 21 C8.98 21 10.96 21 13 21 C13.59070014 19.05396726 13.59070014 19.05396726 14 17 C12.87465895 15.64381501 12.87465895 15.64381501 9.9375 15.9375 C8.968125 15.958125 7.99875 15.97875 7 16 Z " fill="#3C3C3E" transform="translate(203,14)"/>
<path d="M0 0 C3.28133541 2.11463838 4.93976587 3.35514469 6.8125 6.8125 C7.53730586 11.24939569 7.85234968 15.65609042 5.859375 19.7890625 C3.36005812 23.00021013 0.77207365 25.00258721 -3.1875 25.8125 C-7.93792888 25.95351459 -11.83013384 25.51357019 -15.625 22.5 C-19.03504565 18.92361066 -20.01762906 17.34133849 -20.5625 12.4375 C-20.01483629 7.14341742 -17.27368266 3.1880422 -13.1875 -0.1875 C-8.48227445 -1.75590852 -4.66101184 -1.73645539 0 0 Z M-10.9375 5.9375 C-12.69816213 8.57849319 -12.99811747 10.65612448 -13.1875 13.8125 C-12.35263613 16.61317065 -12.35263613 16.61317065 -11.1875 18.8125 C-6.427671 19.85166501 -6.427671 19.85166501 -1.75 18.9375 C0.43888868 15.96061139 0.37026652 13.53754857 0.19921875 9.91015625 C-0.04290803 7.65085724 -0.04290803 7.65085724 -1.875 5.75 C-5.25650294 4.37912043 -7.76487562 3.89795575 -10.9375 5.9375 Z " fill="#3C3C3E" transform="translate(195.1875,15.1875)"/>
<path d="M0 0 C1.2375 0.7425 1.2375 0.7425 2.5 1.5 C1.6875 3.4375 1.6875 3.4375 0.5 5.5 C-0.49 5.83 -1.48 6.16 -2.5 6.5 C-3.16 6.17 -3.82 5.84 -4.5 5.5 C-8.63064626 5.12384874 -8.63064626 5.12384874 -12.375 6.625 C-14.35562053 9.92603422 -13.76765902 13.22861965 -13 16.875 C-12.835 17.41125 -12.67 17.9475 -12.5 18.5 C-10.19 18.5 -7.88 18.5 -5.5 18.5 C-5.17 17.51 -4.84 16.52 -4.5 15.5 C-5.82 15.5 -7.14 15.5 -8.5 15.5 C-8.5 13.85 -8.5 12.2 -8.5 10.5 C-4.87 10.5 -1.24 10.5 2.5 10.5 C2.5 14.46 2.5 18.42 2.5 22.5 C-2.39655665 24.89831346 -5.93209169 26.19598854 -11.5 25.5 C-15.10335629 24.11523911 -17.85920068 22.2234831 -20.4375 19.3125 C-21.9572411 15.28965592 -22.16624676 11.74451588 -21.5 7.5 C-19.69672394 3.75473434 -18.17282723 1.95874584 -14.75 -0.375 C-9.31285607 -2.25708828 -5.30693247 -2.27439963 0 0 Z " fill="#3C3C3E" transform="translate(157.5,15.5)"/>
<path d="M0 0 C0.33 0 0.66 0 1 0 C1 2.97 1 5.94 1 9 C1.47050781 8.50628906 1.94101562 8.01257812 2.42578125 7.50390625 C3.04839844 6.86324219 3.67101563 6.22257812 4.3125 5.5625 C4.92738281 4.92441406 5.54226562 4.28632813 6.17578125 3.62890625 C8 2 8 2 11 1 C9.37453546 7.19850301 7.61091716 13.34357308 5.703125 19.4609375 C5.29806821 20.76949755 4.89312144 22.07809167 4.48828125 23.38671875 C3.866201 25.39625043 3.24068006 27.40439909 2.60498047 29.40966797 C1.98117913 31.38194605 1.37219574 33.35830284 0.765625 35.3359375 C0.40243164 36.49657715 0.03923828 37.6572168 -0.33496094 38.85302734 C-1.02540774 42.12022973 -1.15575569 43.88297196 0 47 C1.66792749 48.87304627 1.66792749 48.87304627 3.859375 50.41015625 C4.64570312 51.00763672 5.43203125 51.60511719 6.2421875 52.22070312 C7.06976563 52.82849609 7.89734375 53.43628906 8.75 54.0625 C10.36982345 55.28250988 11.98961595 56.50256087 13.609375 57.72265625 C14.37056641 58.28871582 15.13175781 58.85477539 15.91601562 59.43798828 C18.3202909 61.24006809 20.67100809 63.10177692 23 65 C16.78589211 64.49869382 11.69534185 61.69955489 6.1875 59 C5.22134766 58.5359375 4.25519531 58.071875 3.25976562 57.59375 C-3.83784014 54.16215986 -3.83784014 54.16215986 -5 53 C-5.09997642 50.50941086 -5.13879627 48.05272605 -5.125 45.5625 C-5.12886719 44.86833984 -5.13273437 44.17417969 -5.13671875 43.45898438 C-5.12663994 38.25327988 -5.12663994 38.25327988 -4 36 C-3.71809651 33.73794585 -3.48738158 31.46943203 -3.28125 29.19921875 C-3.21844849 28.52582962 -3.15564697 27.85244049 -3.09094238 27.15864563 C-2.8901651 25.00192759 -2.69465254 22.84477882 -2.5 20.6875 C-2.30488401 18.54098318 -2.10856201 16.39460297 -1.90905762 14.24848938 C-1.72747075 12.29312551 -1.55015101 10.33736678 -1.37304688 8.3815918 C-1.05860521 5.53124395 -0.62083859 2.79677127 0 0 Z " fill="#D1E749" transform="translate(45,14)"/>
<path d="M0 0 C2.17786882 1.74229506 3.6635016 3.42389718 5.1875 5.75 C4.8575 6.41 4.5275 7.07 4.1875 7.75 C0.50729695 7.11548223 0.50729695 7.11548223 -1.125 5.25 C-3.8108215 2.86260311 -6.30604565 2.87303349 -9.8125 2.75 C-12.3125 3.58333333 -12.3125 3.58333333 -13.8125 5.75 C-14.75396479 9.38136419 -15.01770736 11.91051535 -14.125 15.5625 C-12.55427989 18.18036685 -11.75116477 18.93370423 -8.8125 19.75 C-5.62898042 19.55509064 -3.56329823 19.31957107 -1 17.375 C0.3923898 15.64269626 0.3923898 15.64269626 1.1875 12.75 C-2.1125 12.75 -5.4125 12.75 -8.8125 12.75 C-8.8125 11.76 -8.8125 10.77 -8.8125 9.75 C-4.1925 9.75 0.4275 9.75 5.1875 9.75 C4.81876118 15.89564694 3.41496623 18.52253377 -0.8125 22.75 C-4.43180698 23.95643566 -7.00481005 24.07268559 -10.8125 23.75 C-14.83935088 21.62260708 -17.12185136 19.96504182 -18.8125 15.75 C-19.54901586 11.03972412 -19.23496633 7.57984458 -17.0625 3.3125 C-12.39735433 -2.00058257 -6.45893859 -2.87063937 0 0 Z " fill="#3C3C3E" transform="translate(135.8125,45.25)"/>
<path d="M0 0 C2.31 0 4.62 0 7 0 C7 6.93 7 13.86 7 21 C9.97 21 12.94 21 16 21 C16 22.98 16 24.96 16 27 C10.72 27 5.44 27 0 27 C0 18.09 0 9.18 0 0 Z " fill="#3C3C3E" transform="translate(161,14)"/>
<path d="M0 0 C2.31 0 4.62 0 7 0 C7 6.93 7 13.86 7 21 C9.97 21 12.94 21 16 21 C16 22.98 16 24.96 16 27 C10.72 27 5.44 27 0 27 C0 18.09 0 9.18 0 0 Z " fill="#3C3C3E" transform="translate(115,14)"/>
<path d="M0 0 C3.0165998 2.58565697 4.34598553 4.46560511 4.9609375 8.3984375 C5.05645621 13.8430041 4.35777479 16.99878427 0.625 21.25 C-2.30187225 23.54968534 -5.58593016 23.77999194 -9.2734375 23.7109375 C-13.16207725 22.85803882 -15.78145355 20.15176501 -18.375 17.25 C-20.11091152 13.77817697 -19.84071673 10.04591036 -19.375 6.25 C-17.76785226 3.09310266 -16.40061766 1.05584244 -13.625 -1.125 C-8.40862133 -2.57399408 -4.72603481 -2.45053657 0 0 Z M-15.375 6.25 C-16.87113936 9.80333099 -16.38823793 11.20889275 -15.1875 14.9375 C-13.66842412 18.17743878 -13.66842412 18.17743878 -11.625 19.75 C-8.24691863 20.50068475 -5.71172459 20.09934808 -2.375 19.25 C0.76701221 16.42218901 1.3713507 13.39293858 1.625 9.25 C0.85716002 6.2484437 0.02302482 4.66223999 -2.125 2.4375 C-8.00131003 -0.66388585 -11.51861908 1.29179596 -15.375 6.25 Z " fill="#3C3C3E" transform="translate(105.375,45.75)"/>
<path d="M0 0 C2.9375 2.375 2.9375 2.375 5 5 C5 5.66 5 6.32 5 7 C3.68 7 2.36 7 1 7 C0.34 6.01 -0.32 5.02 -1 4 C-3.58380177 3.74969023 -3.58380177 3.74969023 -6 4 C-6.66 5.65 -7.32 7.3 -8 9 C-7.31292969 9.17015625 -6.62585938 9.3403125 -5.91796875 9.515625 C-5.01691406 9.75796875 -4.11585938 10.0003125 -3.1875 10.25 C-1.84751953 10.59804688 -1.84751953 10.59804688 -0.48046875 10.953125 C2.42586892 12.1797368 3.46386707 13.27080383 5 16 C4.93013292 19.42348685 4.63458711 21.26778411 2.375 23.875 C-1.02207101 25.4841389 -3.28435707 25.52149375 -7 25 C-9.9375 22.6875 -9.9375 22.6875 -12 20 C-12 19.01 -12 18.02 -12 17 C-9.48696195 17.43328242 -8.28483439 17.6780133 -6.5625 19.625 C-6.046875 20.07875 -5.53125 20.5325 -5 21 C-2.34533951 20.76956136 -2.34533951 20.76956136 0 20 C0 18.68 0 17.36 0 16 C-0.69867188 15.74605469 -1.39734375 15.49210937 -2.1171875 15.23046875 C-3.48230469 14.71419922 -3.48230469 14.71419922 -4.875 14.1875 C-5.77992188 13.85105469 -6.68484375 13.51460937 -7.6171875 13.16796875 C-10 12 -10 12 -12 9 C-11.85978632 5.6348717 -11.60414348 3.69708863 -9.375 1.125 C-5.97792899 -0.4841389 -3.71564293 -0.52149375 0 0 Z " fill="#3C3C3E" transform="translate(260,44)"/>
<path d="M0 0 C2.17786882 1.74229506 3.6635016 3.42389718 5.1875 5.75 C4.8575 6.41 4.5275 7.07 4.1875 7.75 C2.3125 7.4375 2.3125 7.4375 0.1875 6.75 C-0.4725 5.76 -1.1325 4.77 -1.8125 3.75 C-7.11635943 2.52956333 -7.11635943 2.52956333 -12.25 3.6875 C-14.6005621 6.79024198 -14.98229977 9.96272695 -14.8125 13.75 C-14.01822041 16.76950153 -14.01822041 16.76950153 -11.8125 18.75 C-8.05585228 19.7062376 -4.43892153 20.42373301 -0.8125 18.75 C-0.4825 17.76 -0.1525 16.77 0.1875 15.75 C2.25 15.0625 2.25 15.0625 4.1875 14.75 C3.64462148 18.55014965 2.07285357 20.28896313 -0.8125 22.75 C-4.43180698 23.95643566 -7.00481005 24.07268559 -10.8125 23.75 C-14.51640021 21.72333762 -16.46613011 20.26955484 -18.8125 16.75 C-19.4897783 11.66253742 -19.63717221 7.19317636 -17.0625 2.6875 C-11.90331354 -1.75513278 -6.33870312 -2.81720139 0 0 Z " fill="#3C3C3E" transform="translate(236.8125,45.25)"/>
<path d="M0 0 C2.9375 2.375 2.9375 2.375 5 5 C5 5.66 5 6.32 5 7 C3.68 7 2.36 7 1 7 C0.34 6.01 -0.32 5.02 -1 4 C-3.58380177 3.74969023 -3.58380177 3.74969023 -6 4 C-6.66 5.65 -7.32 7.3 -8 9 C-7.31292969 9.18175781 -6.62585938 9.36351562 -5.91796875 9.55078125 C-5.01691406 9.80214844 -4.11585938 10.05351563 -3.1875 10.3125 C-2.29417969 10.55613281 -1.40085938 10.79976562 -0.48046875 11.05078125 C2.10290672 12.03938005 3.38092642 12.77107537 5 15 C4.93404021 18.69374831 4.78744042 21.06112873 2.375 23.9375 C-1.02619871 25.4590889 -3.31282731 25.51749792 -7 25 C-9.9375 22.6875 -9.9375 22.6875 -12 20 C-12 19.01 -12 18.02 -12 17 C-9.48696195 17.43328242 -8.28483439 17.6780133 -6.5625 19.625 C-6.046875 20.07875 -5.53125 20.5325 -5 21 C-2.34533951 20.76956136 -2.34533951 20.76956136 0 20 C0 18.68 0 17.36 0 16 C-0.92232422 15.63648438 -0.92232422 15.63648438 -1.86328125 15.265625 C-10.42355287 11.71591109 -10.42355287 11.71591109 -12 8 C-11.92418253 4.89148386 -11.45257769 3.50479819 -9.375 1.1875 C-5.98279278 -0.50860361 -3.74493155 -0.52560443 0 0 Z " fill="#3C3C3E" transform="translate(172,44)"/>
<path d="M0 0 C5.67591796 1.43671673 9.48148522 4.33323184 14 7.875 C15.37385457 8.93638013 16.74883678 9.99630243 18.125 11.0546875 C18.77726562 11.55709961 19.42953125 12.05951172 20.1015625 12.57714844 C22.66640085 14.49945784 25.30918147 16.25937677 28 18 C25.33980184 19.02690755 24.18865119 19.06514183 21.45043945 18.11962891 C20.51417725 17.65991699 19.57791504 17.20020508 18.61328125 16.7265625 C17.59298828 16.2315625 16.57269531 15.7365625 15.52148438 15.2265625 C14.46251953 14.69804688 13.40355469 14.16953125 12.3125 13.625 C11.24193359 13.10421875 10.17136719 12.5834375 9.06835938 12.046875 C1.19024651 8.19024651 1.19024651 8.19024651 0 7 C-0.04092937 4.66702567 -0.04241723 2.33294775 0 0 Z " fill="#DE7CB5" transform="translate(40,60)"/>
<path d="M0 0 C2.26985894 0.76040572 2.26985894 0.76040572 4 1 C2.43358249 5.30764815 0.31663844 9.06171464 -2 13 C-2.99 13 -3.98 13 -5 13 C-5.14695312 12.39671875 -5.29390625 11.7934375 -5.4453125 11.171875 C-6.99057608 5.45757798 -6.99057608 5.45757798 -11.1875 1.5625 C-12.115625 1.046875 -13.04375 0.53125 -14 0 C-14 -0.66 -14 -1.32 -14 -2 C-7.62719998 -4.60114287 -5.66906654 -3.74372319 0 0 Z " fill="#99D6DD" transform="translate(17,42)"/>
<path d="M0 0 C1.32 0 2.64 0 4 0 C4 7.26 4 14.52 4 22 C6.97 22 9.94 22 13 22 C13 22.99 13 23.98 13 25 C11.02090602 25.02686553 9.04171029 25.04633375 7.0625 25.0625 C5.96035156 25.07410156 4.85820313 25.08570312 3.72265625 25.09765625 C1 25 1 25 0 24 C-0.08726223 22.21928754 -0.10699041 20.4351686 -0.09765625 18.65234375 C-0.09443359 17.57275391 -0.09121094 16.49316406 -0.08789062 15.38085938 C-0.07951172 14.24455078 -0.07113281 13.10824219 -0.0625 11.9375 C-0.05798828 10.79732422 -0.05347656 9.65714844 -0.04882812 8.48242188 C-0.03699747 5.65489649 -0.0205141 2.8274736 0 0 Z " fill="#3C3C3E" transform="translate(68,44)"/>
<path d="M0 0 C5.61 0 11.22 0 17 0 C17 0.99 17 1.98 17 3 C14.69 3 12.38 3 10 3 C10 10.26 10 17.52 10 25 C9.01 25 8.02 25 7 25 C7 17.74 7 10.48 7 3 C4.69 3 2.38 3 0 3 C0 2.01 0 1.02 0 0 Z " fill="#3C3C3E" transform="translate(183,44)"/>
<path d="M0 0 C0.33 0 0.66 0 1 0 C1 2.64 1 5.28 1 8 C2.32 7.67 3.64 7.34 5 7 C5.33 5.35 5.66 3.7 6 2 C7.13374897 5.40124691 6.85671511 6.19171893 5.78515625 9.4921875 C5.51123047 10.36230469 5.23730469 11.23242188 4.95507812 12.12890625 C4.66052734 13.03511719 4.36597656 13.94132812 4.0625 14.875 C3.48436402 16.66196577 2.91253289 18.45098616 2.34765625 20.2421875 C1.96105835 21.43110596 1.96105835 21.43110596 1.56665039 22.64404297 C0.95825895 25.17354639 0.90088008 27.40794228 1 30 C-0.32 29.67 -1.64 29.34 -3 29 C-3.125 21.25 -3.125 21.25 -2 19 C-1.78217533 17.55487563 -1.61026332 16.10263322 -1.46484375 14.6484375 C-1.37783203 13.79765625 -1.29082031 12.946875 -1.20117188 12.0703125 C-1.11416016 11.18085937 -1.02714844 10.29140625 -0.9375 9.375 C-0.84662109 8.4778125 -0.75574219 7.580625 -0.66210938 6.65625 C-0.43790708 4.43782728 -0.21735434 2.2191024 0 0 Z " fill="#D6E681" transform="translate(43,31)"/>
<path d="M0 0 C0.99 0 1.98 0 3 0 C3 8.25 3 16.5 3 25 C2.01 25 1.02 25 0 25 C0 16.75 0 8.5 0 0 Z " fill="#3C3C3E" transform="translate(207,44)"/>
<path d="M0 0 C0.99 0 1.98 0 3 0 C3 8.25 3 16.5 3 25 C2.01 25 1.02 25 0 25 C0 16.75 0 8.5 0 0 Z " fill="#3C3C3E" transform="translate(149,44)"/>
<path d="M0 0 C0.33 0 0.66 0 1 0 C1 2.97 1 5.94 1 9 C1.47050781 8.50628906 1.94101562 8.01257812 2.42578125 7.50390625 C3.04839844 6.86324219 3.67101563 6.22257812 4.3125 5.5625 C4.92738281 4.92441406 5.54226562 4.28632813 6.17578125 3.62890625 C8 2 8 2 11 1 C9.36959185 7.01077136 7.72852643 13.01663928 6 19 C5.67 19 5.34 19 5 19 C5.061875 18.071875 5.12375 17.14375 5.1875 16.1875 C5.30894264 13.01604897 5.30894264 13.01604897 3.5 11.125 C3.005 10.75375 2.51 10.3825 2 10 C2 10.66 2 11.32 2 12 C1.01 12 0.02 12 -1 12 C-1.08159574 7.83861737 -0.98248524 4.0527516 0 0 Z " fill="#D1E794" transform="translate(45,14)"/>
<path d="M0 0 C4.99455809 1.27767765 7.61297811 3.12911784 11 7 C11.33 7.66 11.66 8.32 12 9 C8.81680668 10.06106444 7.98060942 9.96156637 4.875 9.125 C3.81925781 8.85042969 3.81925781 8.85042969 2.7421875 8.5703125 C1 8 1 8 0 7 C-0.04092937 4.66702567 -0.04241723 2.33294775 0 0 Z " fill="#DE58A5" transform="translate(40,60)"/>
<path d="M0 0 C0.66 0 1.32 0 2 0 C1.34 3.63 0.68 7.26 0 11 C-0.66 10.34 -1.32 9.68 -2 9 C-4.77000825 12.32086771 -4.77000825 12.32086771 -7 16 C-9.0625 16.625 -9.0625 16.625 -11 17 C-9.52769684 12.68711193 -7.23423235 9.28218566 -4.5 5.6875 C-3.89478516 4.86282227 -3.89478516 4.86282227 -3.27734375 4.02148438 C-2.23731309 2.63992549 -1.12366546 1.31443702 0 0 Z " fill="#78CFBC" transform="translate(45,8)"/>
<path d="M0 0 C0.99 0.495 0.99 0.495 2 1 C2 1.66 2 2.32 2 3 C3.32 3.33 4.64 3.66 6 4 C4.75023244 7.65316671 4.32901247 8.78065836 1 11 C-0.17571451 7.32589215 -0.07366746 3.83070817 0 0 Z " fill="#0CBEE9" transform="translate(12,41)"/>
<path d="M0 0 C0 1.98 0 3.96 0 6 C-1.33855056 5.21718695 -2.67073644 4.42348123 -4 3.625 C-4.7425 3.18414062 -5.485 2.74328125 -6.25 2.2890625 C-6.8275 1.86367188 -7.405 1.43828125 -8 1 C-8 0.34 -8 -0.32 -8 -1 C-4.59745511 -2.2151946 -3.06748874 -1.86240388 0 0 Z " fill="#E5AA6A" transform="translate(11,41)"/>
<path d="M0 0 C0 3.33156142 -0.45664761 5.06028115 -2 8 C-4.625 9.8125 -4.625 9.8125 -7 11 C-5.22054913 6.95579349 -2.60470327 3.53921513 0 0 Z " fill="#8BD1C3" transform="translate(33,25)"/>
<path d="M0 0 C1 2 1 2 0.0625 5.125 C-0.288125 6.07375 -0.63875 7.0225 -1 8 C-1.66 7.01 -2.32 6.02 -3 5 C-4.98 5.99 -4.98 5.99 -7 7 C-2.25 1.125 -2.25 1.125 0 0 Z " fill="#E2EAB6" transform="translate(55,15)"/>
<path d="M0 0 C3.465 1.98 3.465 1.98 7 4 C7 4.66 7 5.32 7 6 C6.01 6 5.02 6 4 6 C3.67 5.34 3.34 4.68 3 4 C2.34 4.66 1.68 5.32 1 6 C0.34 4.35 -0.32 2.7 -1 1 C-0.67 0.67 -0.34 0.34 0 0 Z " fill="#7BCEDB" transform="translate(10,38)"/>
<path d="M0 0 C3.465 1.98 3.465 1.98 7 4 C5.375 4.6875 5.375 4.6875 3 5 C-0.25 3.5625 -0.25 3.5625 -3 2 C-2.01 1.34 -1.02 0.68 0 0 Z " fill="#DCA5C5" transform="translate(61,74)"/>
<path d="M0 0 C1.485 0.99 1.485 0.99 3 2 C3.1875 5.125 3.1875 5.125 3 8 C1.5 6.8125 1.5 6.8125 0 5 C-0.1875 2.3125 -0.1875 2.3125 0 0 Z " fill="#F0A04E" transform="translate(8,39)"/>
</svg>
