<?xml version="1.0" encoding="UTF-8"?>
<svg version="1.1" xmlns="http://www.w3.org/2000/svg" width="16" height="16">
<path d="M0 0 C1.32 0.33 2.64 0.66 4 1 C3.67 4.63 3.34 8.26 3 12 C3.99 12.66 4.98 13.32 6 14 C6 14.66 6 15.32 6 16 C1.2788052 15.40985065 -3.11812288 13.75722113 -7 11 C-8 8.25 -8 8.25 -8 6 C-6.68 6 -5.36 6 -4 6 C-1.71760829 3.07678035 -1.71760829 3.07678035 0 0 Z " fill="#86C9B0" transform="translate(9,0)"/>
<path d="M0 0 C0.33 0 0.66 0 1 0 C1 3.3 1 6.6 1 10 C-1.475 9.01 -1.475 9.01 -4 8 C-3.4021799 4.65220745 -2.20964398 2.57791798 0 0 Z " fill="#63CCB6" transform="translate(8,4)"/>
<path d="M0 0 C2.4375 0.8125 2.4375 0.8125 5 2 C5.33 2.99 5.66 3.98 6 5 C4.35 4.67 2.7 4.34 1 4 C0.67 2.68 0.34 1.36 0 0 Z " fill="#D974AD" transform="translate(9,11)"/>
<path d="M0 0 C1.46726798 3.81489674 0.43336419 6.29011622 -1 10 C-1.33 10 -1.66 10 -2 10 C-2.1953125 3.9453125 -2.1953125 3.9453125 -2 2 C-1.34 1.34 -0.68 0.68 0 0 Z " fill="#D7E87A" transform="translate(12,1)"/>
</svg>
